<svg width="1400" height="320" viewBox="0 0 1400 320" fill="none" xmlns="http://www.w3.org/2000/svg">
  <defs>
    <linearGradient id="bgGlow" x1="140" y1="20" x2="1260" y2="300" gradientUnits="userSpaceOnUse">
      <stop offset="0%" stop-color="#0B0B0F"/>
      <stop offset="52%" stop-color="#050505"/>
      <stop offset="100%" stop-color="#0A0A0C"/>
    </linearGradient>
    <radialGradient id="accentGlow" cx="0" cy="0" r="1" gradientUnits="userSpaceOnUse" gradientTransform="translate(280 160) rotate(0) scale(260 200)">
      <stop offset="0%" stop-color="#312E81" stop-opacity="0.38"/>
      <stop offset="45%" stop-color="#0F172A" stop-opacity="0.18"/>
      <stop offset="100%" stop-color="#020617" stop-opacity="0"/>
    </radialGradient>
    <linearGradient id="chipGradient" x1="0" y1="0" x2="256" y2="256" gradientUnits="userSpaceOnUse">
      <stop offset="0%" stop-color="#F97316"/>
      <stop offset="36%" stop-color="#EC4899"/>
      <stop offset="68%" stop-color="#8B5CF6"/>
      <stop offset="100%" stop-color="#38BDF8"/>
    </linearGradient>
    <linearGradient id="metal" x1="0" y1="0" x2="0" y2="18" gradientUnits="userSpaceOnUse">
      <stop offset="0%" stop-color="#F8FAFC"/>
      <stop offset="50%" stop-color="#CBD5E1"/>
      <stop offset="100%" stop-color="#94A3B8"/>
    </linearGradient>
  </defs>

  <rect x="16" y="16" width="1368" height="288" rx="30" fill="url(#bgGlow)"/>
  <rect x="16" y="16" width="1368" height="288" rx="30" stroke="#1F2937" stroke-width="2"/>
  <rect x="32" y="32" width="1336" height="256" rx="22" stroke="#111827" stroke-width="1.5"/>
  <ellipse cx="308" cy="162" rx="300" ry="188" fill="url(#accentGlow)"/>

  <g transform="translate(120 32) scale(1)">
    <g fill="url(#metal)">
      <rect x="54" y="10" width="10" height="18" rx="1"/>
      <rect x="78" y="10" width="10" height="18" rx="1"/>
      <rect x="102" y="10" width="10" height="18" rx="1"/>
      <rect x="126" y="10" width="10" height="18" rx="1"/>
      <rect x="150" y="10" width="10" height="18" rx="1"/>
      <rect x="174" y="10" width="10" height="18" rx="1"/>
      <rect x="54" y="228" width="10" height="18" rx="1"/>
      <rect x="78" y="228" width="10" height="18" rx="1"/>
      <rect x="102" y="228" width="10" height="18" rx="1"/>
      <rect x="126" y="228" width="10" height="18" rx="1"/>
      <rect x="150" y="228" width="10" height="18" rx="1"/>
      <rect x="174" y="228" width="10" height="18" rx="1"/>
      <rect x="10" y="54" width="18" height="10" rx="1"/>
      <rect x="10" y="78" width="18" height="10" rx="1"/>
      <rect x="10" y="102" width="18" height="10" rx="1"/>
      <rect x="10" y="126" width="18" height="10" rx="1"/>
      <rect x="10" y="150" width="18" height="10" rx="1"/>
      <rect x="10" y="174" width="18" height="10" rx="1"/>
      <rect x="228" y="54" width="18" height="10" rx="1"/>
      <rect x="228" y="78" width="18" height="10" rx="1"/>
      <rect x="228" y="102" width="18" height="10" rx="1"/>
      <rect x="228" y="126" width="18" height="10" rx="1"/>
      <rect x="228" y="150" width="18" height="10" rx="1"/>
      <rect x="228" y="174" width="18" height="10" rx="1"/>
    </g>

    <rect x="28" y="28" width="200" height="200" rx="12" fill="#0A0A0A" stroke="url(#chipGradient)" stroke-width="6"/>
    <rect x="44" y="44" width="168" height="168" rx="8" fill="#020202" stroke="#E2E8F0" stroke-opacity="0.72" stroke-width="2"/>

    <g stroke="#D8DEE9" stroke-opacity="0.48" stroke-width="1.7">
      <path d="M64 58V198"/>
      <path d="M80 58V198"/>
      <path d="M96 58V198"/>
      <path d="M112 58V198"/>
      <path d="M128 58V198"/>
      <path d="M144 58V198"/>
      <path d="M160 58V198"/>
      <path d="M176 58V198"/>
      <path d="M58 96H198"/>
      <path d="M58 134H198"/>
      <path d="M58 172H198"/>
      <rect x="66" y="102" width="46" height="24" rx="2"/>
      <rect x="120" y="102" width="40" height="24" rx="2"/>
      <rect x="164" y="102" width="24" height="24" rx="2"/>
      <rect x="66" y="140" width="58" height="22" rx="2"/>
      <rect x="130" y="140" width="58" height="22" rx="2"/>
      <rect x="126" y="170" width="62" height="20" rx="2"/>
    </g>
  </g>

  <text x="470" y="155" fill="#F8FAFC" font-size="98" font-weight="800" letter-spacing="-4" font-family="Segoe UI, Arial, sans-serif">NanoMind</text>
  <text x="470" y="208" fill="#A5B4FC" font-size="28" font-weight="600" letter-spacing="1.5" font-family="Segoe UI, Arial, sans-serif">
    LOCAL EDGE AI · CLOUD FALLBACK · FULL DASHBOARD
  </text>
</svg>
