<svg width="960" height="260" viewBox="0 0 960 260" fill="none" xmlns="http://www.w3.org/2000/svg">
  <defs>
    <linearGradient id="chipGradient" x1="36" y1="36" x2="228" y2="228" gradientUnits="userSpaceOnUse">
      <stop offset="0%" stop-color="#F97316"/>
      <stop offset="36%" stop-color="#EC4899"/>
      <stop offset="68%" stop-color="#8B5CF6"/>
      <stop offset="100%" stop-color="#38BDF8"/>
    </linearGradient>
    <linearGradient id="metal" x1="0" y1="0" x2="0" y2="18" gradientUnits="userSpaceOnUse">
      <stop offset="0%" stop-color="#F8FAFC"/>
      <stop offset="50%" stop-color="#CBD5E1"/>
      <stop offset="100%" stop-color="#94A3B8"/>
    </linearGradient>
  </defs>

  <g transform="translate(24 24)">
    <g fill="url(#metal)">
      <rect x="54" y="0" width="10" height="20" rx="1"/>
      <rect x="78" y="0" width="10" height="20" rx="1"/>
      <rect x="102" y="0" width="10" height="20" rx="1"/>
      <rect x="126" y="0" width="10" height="20" rx="1"/>
      <rect x="150" y="0" width="10" height="20" rx="1"/>
      <rect x="174" y="0" width="10" height="20" rx="1"/>
      <rect x="198" y="0" width="10" height="20" rx="1"/>
      <rect x="222" y="0" width="10" height="20" rx="1"/>
      <rect x="54" y="212" width="10" height="20" rx="1"/>
      <rect x="78" y="212" width="10" height="20" rx="1"/>
      <rect x="102" y="212" width="10" height="20" rx="1"/>
      <rect x="126" y="212" width="10" height="20" rx="1"/>
      <rect x="150" y="212" width="10" height="20" rx="1"/>
      <rect x="174" y="212" width="10" height="20" rx="1"/>
      <rect x="198" y="212" width="10" height="20" rx="1"/>
      <rect x="222" y="212" width="10" height="20" rx="1"/>
      <rect x="0" y="54" width="20" height="10" rx="1"/>
      <rect x="0" y="78" width="20" height="10" rx="1"/>
      <rect x="0" y="102" width="20" height="10" rx="1"/>
      <rect x="0" y="126" width="20" height="10" rx="1"/>
      <rect x="0" y="150" width="20" height="10" rx="1"/>
      <rect x="0" y="174" width="20" height="10" rx="1"/>
      <rect x="212" y="54" width="20" height="10" rx="1"/>
      <rect x="212" y="78" width="20" height="10" rx="1"/>
      <rect x="212" y="102" width="20" height="10" rx="1"/>
      <rect x="212" y="126" width="20" height="10" rx="1"/>
      <rect x="212" y="150" width="20" height="10" rx="1"/>
      <rect x="212" y="174" width="20" height="10" rx="1"/>
    </g>

    <rect x="20" y="20" width="192" height="192" rx="10" fill="#0A0A0A" stroke="url(#chipGradient)" stroke-width="6"/>
    <rect x="36" y="36" width="160" height="160" rx="7" fill="#020202" stroke="#E2E8F0" stroke-opacity="0.72" stroke-width="2"/>

    <g stroke="#D8DEE9" stroke-opacity="0.45" stroke-width="1.4">
      <path d="M54 50V182"/>
      <path d="M68 50V182"/>
      <path d="M82 50V182"/>
      <path d="M96 50V182"/>
      <path d="M110 50V182"/>
      <path d="M124 50V182"/>
      <path d="M138 50V182"/>
      <path d="M152 50V182"/>
      <path d="M166 50V182"/>
      <path d="M180 50V182"/>
      <path d="M50 86H182"/>
      <path d="M50 122H182"/>
      <path d="M50 158H182"/>
      <rect x="56" y="92" width="44" height="24" rx="2"/>
      <rect x="108" y="92" width="36" height="24" rx="2"/>
      <rect x="148" y="92" width="28" height="24" rx="2"/>
      <rect x="56" y="128" width="52" height="22" rx="2"/>
      <rect x="114" y="128" width="62" height="22" rx="2"/>
      <rect x="112" y="156" width="64" height="20" rx="2"/>
      <path d="M104 104H148"/>
      <path d="M56 140H108"/>
      <path d="M114 168H176"/>
    </g>
  </g>

  <text x="292" y="152" fill="#0F172A" font-size="92" font-weight="800" letter-spacing="-4" font-family="Inter, Segoe UI, Arial, sans-serif">NanoMind</text>
</svg>
